<?xml version="1.0" standalone="no"?>
<!DOCTYPE svg PUBLIC "-//W3C//DTD SVG 20010904//EN"
 "http://www.w3.org/TR/2001/REC-SVG-20010904/DTD/svg10.dtd">
<svg version="1.0" xmlns="http://www.w3.org/2000/svg"
 width="414.000000pt" height="414.000000pt" viewBox="0 0 414.000000 414.000000"
 preserveAspectRatio="xMidYMid meet">
<metadata>
Created by potrace 1.14, written by Peter Selinger 2001-2017
</metadata>
<g transform="translate(0.000000,414.000000) scale(0.100000,-0.100000)"
fill="#000000" stroke="none">
<path d="M1850 3969 c-160 -20 -189 -25 -227 -40 -16 -6 -29 -10 -31 -9 -13 8
-172 -43 -292 -93 -84 -35 -117 -51 -237 -118 -35 -20 -145 -91 -153 -99 -3
-3 -23 -18 -45 -35 -22 -16 -53 -41 -70 -55 -46 -38 -227 -222 -255 -259 -14
-18 -30 -38 -35 -45 -6 -6 -26 -33 -45 -61 -19 -27 -37 -51 -42 -53 -4 -2 -8
-10 -8 -17 0 -8 -6 -20 -12 -27 -15 -16 -23 -29 -84 -145 -26 -48 -46 -89 -45
-91 1 -1 -7 -22 -18 -45 -17 -37 -56 -144 -67 -187 -2 -8 -11 -40 -19 -70 -66
-239 -81 -571 -36 -835 45 -259 149 -516 306 -750 79 -117 102 -144 223 -269
110 -114 299 -258 410 -315 127 -65 207 -104 216 -105 6 -2 27 -9 46 -18 19
-8 69 -25 110 -37 41 -12 86 -26 100 -31 22 -8 58 -16 156 -34 169 -32 499
-39 619 -13 11 3 40 8 65 11 114 15 305 69 425 119 131 55 393 204 403 229 2
4 10 8 17 8 7 0 15 3 17 8 2 4 23 23 48 42 55 42 253 239 300 298 74 93 170
246 228 364 96 196 150 377 180 608 9 75 8 392 -2 460 -5 30 -10 64 -11 75 -8
85 -69 306 -111 402 -8 17 -14 34 -14 37 0 24 -145 298 -162 304 -4 2 -8 10
-8 18 0 8 -4 14 -10 14 -5 0 -10 5 -10 11 0 10 -66 101 -114 158 -92 109 -337
331 -364 331 -4 0 -13 9 -20 20 -7 11 -17 20 -23 20 -6 0 -29 13 -52 29 -128
87 -404 206 -562 241 -27 7 -59 14 -70 16 -21 5 -97 19 -155 29 -58 10 -390
13 -460 4z"/>
</g>
</svg>
